<!-- This is a placeholder logo file. In a real implementation, replace with an actual PNG image. -->
<svg width="200" height="200" viewBox="0 0 200 200" fill="none" xmlns="http://www.w3.org/2000/svg">
  <!-- Background Circle -->
  <circle cx="100" cy="100" r="95" fill="#0366D6" />
  <circle cx="100" cy="100" r="85" fill="#24292E" />
  
  <!-- GitHub-style logo elements -->
  <path d="M100 47C70.1766 47 46 71.1766 46 101C46 124.823 61.5781 145.081 83.5781 152.823C86.4219 153.388 87.5781 151.677 87.5781 150.177C87.5781 148.823 87.5 144.177 87.5 139.177C73 142.823 69.4219 135.177 67.5781 131.677C66.5781 129.823 62.4219 125 59.4219 123.645C56.8984 122.532 53.8984 118.887 59.3437 118.823C64.5 118.742 68.1766 123.387 69.4219 125.323C75 133.387 83.5781 131.887 87.8984 130.387C88.4766 126.532 90.1766 123.887 92.0234 122.258C77.5766 120.629 62.4219 115.177 62.4219 94.8234C62.4219 88.2097 64.9766 82.7419 69.5781 78.5081C68.9234 77.0734 66.5781 70.4195 70.4219 61.8234C70.4219 61.8234 75.3437 59.9766 87.5781 68.0645C91.6562 66.6298 96.0117 65.9115 100.367 65.9115C104.723 65.9115 109.078 66.6298 113.156 68.0645C125.391 59.9113 130.312 61.8234 130.312 61.8234C134.156 70.4195 131.812 77.0734 131.156 78.5081C135.758 82.7419 138.312 88.1444 138.312 94.8234C138.312 115.242 123.078 120.629 108.633 122.258C110.961 124.306 112.977 128.242 112.977 134.371C112.977 143.032 112.898 148.172 112.898 150.177C112.898 151.677 114.055 153.452 116.898 152.823C138.898 145.081 154.477 124.758 154.477 101C154.477 71.1766 130.3 47 100.477 47H100Z" fill="white"/>
  
  <!-- Chart-like elements for data analysis -->
  <rect x="75" y="160" width="10" height="25" rx="2" fill="#2EA44F" />
  <rect x="95" y="155" width="10" height="30" rx="2" fill="#2EA44F" />
  <rect x="115" y="145" width="10" height="40" rx="2" fill="#2EA44F" />
  
  <!-- Signal waves -->
  <path d="M60 40C65 35 75 32 85 35C95 38 105 38 115 35C125 32 135 35 140 40" stroke="#2EA44F" stroke-width="4" stroke-linecap="round"/>
  <path d="M50 30C57 23 72 19 85 23C98 27 105 27 120 23C133 19 143 23 150 30" stroke="#2EA44F" stroke-width="3" stroke-linecap="round"/>
  <path d="M45 20C53 12 72 8 90 12C108 16 120 16 135 12C150 8 157 12 165 20" stroke="#2EA44F" stroke-width="2" stroke-linecap="round"/>
</svg>
